<?xml version="1.0" encoding="UTF-8"?>
<svg id="Layer_2" data-name="Layer 2" xmlns="http://www.w3.org/2000/svg" viewBox="0 0 153.2 153.2">
  <defs>
    <style>
      .cls-1 {
        fill: #7b00e9;
        stroke-width: 0px;
      }

      .cls-2 {
        fill: #fff;
        stroke: #7b00e9;
        stroke-miterlimit: 10;
        stroke-width: 2px;
      }
    </style>
  </defs>
  <g id="Capa_1" data-name="Capa 1">
    <g>
      <circle class="cls-2" cx="76.6" cy="76.6" r="75.6"/>
      <g>
        <path class="cls-1" d="M86.86,83.44c-2.1,3.13-5.61,5.24-9.61,5.44-.11,0-.22,0-.33.01-.09,0-.18,0-.28,0-.01,0-.02,0-.04,0-.01,0-.02,0-.03,0-1.75,0-3.42-.37-4.93-1.03-2.66-1.16-4.82-3.23-6.1-5.83,0,0,0,0,0,0-.06-.18-.12-.36-.18-.53-.21-.48-.39-.98-.54-1.5-.07-.19-.14-.38-.21-.56,0,0,0,0,0,0-1.81-4.49-4.46-8.54-7.77-11.97-.02-.02-.03-.03-.05-.05-.21-.22-.42-.43-.64-.64,0,0,0,0,0,0-.21-.21-.43-.42-.65-.62,0,0-.01,0-.02-.01-.22-.2-.43-.4-.65-.6,0,0-.02-.01-.02-.02-.22-.19-.44-.38-.66-.57-.01,0-.02-.02-.03-.03-.22-.19-.44-.37-.66-.55-.01-.01-.03-.02-.04-.03-.22-.18-.44-.35-.67-.52-.02-.01-.04-.03-.05-.04-.22-.17-.44-.34-.67-.5-.02-.02-.05-.03-.07-.05-.22-.16-.44-.32-.67-.47-.03-.02-.05-.04-.08-.06-.22-.15-.44-.3-.67-.45-.03-.02-.06-.04-.1-.06-.22-.14-.44-.28-.66-.42-.04-.02-.07-.05-.11-.07-.22-.14-.44-.27-.66-.4-.04-.02-.08-.05-.12-.07-.22-.13-.44-.25-.66-.38-.05-.03-.09-.05-.14-.08-.22-.12-.43-.24-.65-.35-.05-.03-.1-.06-.16-.08-.22-.11-.43-.22-.65-.33-.06-.03-.11-.06-.17-.08-.21-.1-.43-.21-.65-.31-.06-.03-.12-.06-.19-.09-.21-.1-.42-.19-.64-.29-.07-.03-.14-.06-.2-.09-.21-.09-.42-.18-.63-.26-.07-.03-.15-.06-.22-.09-.21-.08-.42-.16-.63-.24-.08-.03-.16-.06-.24-.09-.21-.08-.41-.15-.62-.22-.08-.03-.17-.06-.25-.09-.2-.07-.41-.14-.61-.2-.09-.03-.18-.06-.27-.09-.2-.06-.4-.12-.6-.18-.1-.03-.19-.06-.29-.09-.2-.06-.4-.11-.6-.16-.1-.03-.2-.06-.3-.08-.2-.05-.39-.1-.59-.15-.11-.03-.21-.05-.32-.08-.19-.05-.39-.09-.59-.13-.11-.02-.22-.05-.33-.07-.19-.04-.39-.08-.58-.11-.11-.02-.23-.04-.34-.07-.19-.03-.38-.07-.58-.1-.12-.02-.24-.04-.36-.06-.19-.03-.38-.06-.57-.08-.12-.02-.24-.04-.37-.05-.19-.02-.38-.05-.57-.07-.12-.01-.25-.03-.37-.04-.19-.02-.39-.04-.58-.05-.12-.01-.25-.02-.37-.03-.2-.02-.4-.03-.6-.04-.12,0-.24-.02-.36-.02-.22-.01-.44-.02-.66-.03-.1,0-.2,0-.3-.01-.32,0-.64-.01-.97-.01-.25,0-.5.01-.74.02-.06,0-.12,0-.17,0-4.99.12-9.74,1.23-14.05,3.13-.22.13-.43.25-.64.39-1.82,1.16-3.26,2.6-4.33,4.33-1.07,1.73-1.61,3.75-1.61,6.07,0,2.2.39,4.05,1.16,5.54.77,1.49,1.85,2.69,3.21,3.62,1.37.92,2.99,1.58,4.87,1.96,1.88.39,3.94.58,6.21.58h7.95c1.31,0,2.41.16,3.3.49.89.33,1.34.94,1.34,1.83,0,.65-.22,1.22-.67,1.7-.45.48-1.06.86-1.83,1.16-.77.3-1.64.52-2.59.67-.95.15-1.96.22-3.04.22-2.32,0-4.61-.27-6.88-.8-2.26-.54-4.26-1.43-5.98-2.68l-5.89,7.05c2.44,1.96,5.31,3.39,8.62,4.29,3.3.89,6.65,1.34,10.05,1.34,2.26,0,4.51-.27,6.74-.8,2.23-.54,4.24-1.36,6.03-2.46,1.79-1.1,3.23-2.47,4.33-4.11,1.1-1.64,1.65-3.56,1.65-5.76,0-2.56-.48-4.61-1.43-6.16-.95-1.55-2.2-2.72-3.75-3.53-1.55-.8-3.29-1.34-5.22-1.61-1.93-.27-3.88-.4-5.85-.4h-6.16c-1.67,0-3.01-.15-4.02-.45-1.01-.3-1.52-.89-1.52-1.79,0-1.61.94-2.78,2.81-3.53,1.47-.58,3.16-.93,5.08-1.06v.05c.68-.05,1.36-.08,2.05-.08.43,0,.85.01,1.28.03.53.04,1.06.09,1.57.16v-.05c10.57,1.03,19.47,7.76,23.6,17.07.32,1.14.74,2.24,1.23,3.3,0,0,0,0,0,0,0,0,0,0,0,0,.12.25.24.49.37.74.03.05.05.1.07.15.12.22.24.45.37.67.04.06.07.13.11.19.12.21.25.42.38.63.04.07.09.14.13.2.13.2.27.4.4.6.05.07.09.13.14.19.14.2.28.4.43.59.04.05.08.11.13.16.16.2.32.4.48.6,0,0,0,0,.01.01.54.65,1.12,1.26,1.73,1.84.07.07.14.14.21.2.15.14.3.27.45.4.1.09.2.17.3.26.14.12.29.24.44.36.11.09.23.18.34.27.14.11.29.22.43.32.12.09.25.18.37.26.14.1.29.2.44.3.13.09.27.17.4.26.14.09.29.18.44.27.14.09.29.17.43.25.14.08.29.16.43.24.16.09.32.17.48.25.14.07.27.14.41.21,0,0,0,0,0,0h0c1.11.53,2.28.97,3.48,1.31.88.25,1.79.44,2.71.57.06,0,.11.01.17.02.3.04.59.08.89.11.37.04.73.07,1.1.08,0,0,0,0,.01,0,.36.02.72.03,1.08.03.3,0,.59-.01.88-.02.07,0,.14,0,.21,0,6.05-.31,11.45-3.09,15.21-7.35-2.33-2.25-4.37-4.8-6.06-7.59Z"/>
        <path class="cls-1" d="M143.47,77.6c-.77-1.49-1.85-2.69-3.21-3.62-1.37-.92-2.99-1.58-4.87-1.96-1.88-.39-3.94-.58-6.21-.58h-7.95c-1.31,0-2.41-.16-3.3-.49-.89-.33-1.34-.94-1.34-1.83,0-.65.22-1.22.67-1.7.45-.48,1.06-.86,1.83-1.16.77-.3,1.64-.52,2.59-.67.95-.15,1.96-.22,3.04-.22,2.32,0,4.61.27,6.88.8,2.26.54,4.26,1.43,5.98,2.68l5.89-7.05c-2.44-1.96-5.31-3.39-8.62-4.29-3.3-.89-6.65-1.34-10.05-1.34-2.26,0-4.51.27-6.74.8-2.23.54-4.24,1.36-6.03,2.46-1.79,1.1-3.23,2.47-4.33,4.11-1.1,1.64-1.65,3.56-1.65,5.76,0,2.56.48,4.61,1.43,6.16.95,1.55,2.2,2.72,3.75,3.53,1.55.8,3.29,1.34,5.22,1.61,1.93.27,3.88.4,5.85.4h6.16c1.67,0,3.01.15,4.02.45,1.01.3,1.52.89,1.52,1.79,0,1.61-.94,2.78-2.81,3.53-1.47.58-3.16.93-5.08,1.06v-.05c-.68.05-1.36.08-2.05.08-.43,0-.85-.01-1.28-.03-.53-.04-1.06-.09-1.57-.16v.05c-10.57-1.03-19.47-7.76-23.6-17.07-.32-1.14-.74-2.24-1.23-3.3,0,0,0,0,0,0,0,0,0,0,0,0-.12-.25-.24-.49-.37-.74-.03-.05-.05-.1-.07-.15-.12-.22-.24-.45-.37-.67-.04-.06-.07-.13-.11-.19-.12-.21-.25-.42-.38-.63-.04-.07-.09-.14-.13-.2-.13-.2-.27-.4-.4-.6-.05-.07-.09-.13-.14-.19-.14-.2-.28-.4-.43-.59-.04-.05-.08-.11-.13-.16-.16-.2-.32-.4-.48-.6,0,0,0,0-.01-.01-.54-.65-1.12-1.26-1.73-1.84-.07-.07-.14-.14-.21-.2-.15-.14-.3-.27-.45-.4-.1-.09-.2-.17-.3-.26-.14-.12-.29-.24-.44-.36-.11-.09-.23-.18-.34-.27-.14-.11-.29-.22-.43-.32-.12-.09-.25-.18-.37-.26-.14-.1-.29-.2-.44-.3-.13-.09-.27-.17-.4-.26-.14-.09-.29-.18-.44-.27-.14-.09-.29-.17-.43-.25-.14-.08-.29-.16-.43-.24-.16-.09-.32-.17-.48-.25-.14-.07-.27-.14-.41-.21,0,0,0,0,0,0h0c-1.11-.53-2.28-.97-3.48-1.31-.88-.25-1.79-.44-2.71-.57-.06,0-.11-.01-.17-.02-.3-.04-.59-.08-.89-.11-.37-.04-.73-.07-1.1-.08,0,0,0,0-.01,0-.36-.02-.72-.03-1.08-.03-.3,0-.59.01-.88.02-.07,0-.14,0-.21,0-6.05.31-11.45,3.09-15.21,7.35,2.33,2.25,4.37,4.8,6.06,7.59,2.1-3.13,5.61-5.24,9.61-5.44.11,0,.22,0,.33-.01.09,0,.18,0,.28,0,.01,0,.02,0,.04,0,.01,0,.02,0,.03,0,1.75,0,3.42.37,4.93,1.03,2.66,1.16,4.82,3.23,6.1,5.83,0,0,0,0,0,0,.06.18.12.36.18.53.21.48.39.98.54,1.5.07.19.14.38.21.56,0,0,0,0,0,0,1.81,4.49,4.46,8.54,7.77,11.97.02.02.03.03.05.05.21.22.42.43.64.64,0,0,0,0,0,0,.21.21.43.42.65.62,0,0,.01,0,.02.01.22.2.43.4.65.6,0,0,.02.01.02.02.22.19.44.38.66.57.01,0,.02.02.03.03.22.19.44.37.66.55.01.01.03.02.04.03.22.18.44.35.67.52.02.01.04.03.05.04.22.17.44.34.67.5.02.02.05.03.07.05.22.16.44.32.67.47.03.02.05.04.08.06.22.15.44.3.67.45.03.02.06.04.1.06.22.14.44.28.66.42.04.02.07.05.11.07.22.14.44.27.66.4.04.02.08.05.12.07.22.13.44.25.66.38.05.03.09.05.14.08.22.12.43.24.65.35.05.03.1.06.16.08.22.11.43.22.65.33.06.03.11.06.17.08.21.1.43.21.65.31.06.03.12.06.19.09.21.1.42.19.64.29.07.03.14.06.2.09.21.09.42.18.63.26.07.03.15.06.22.09.21.08.42.16.63.24.08.03.16.06.24.09.21.08.41.15.62.22.08.03.17.06.25.09.2.07.41.14.61.2.09.03.18.06.27.09.2.06.4.12.6.18.1.03.19.06.29.09.2.06.4.11.6.16.1.03.2.06.3.08.2.05.39.1.59.15.11.03.21.05.32.08.19.05.39.09.59.13.11.02.22.05.33.07.19.04.39.08.58.11.11.02.23.04.34.07.19.03.38.07.58.1.12.02.24.04.36.06.19.03.38.06.57.08.12.02.24.04.37.05.19.02.38.05.57.07.12.01.25.03.37.04.19.02.39.04.58.05.12.01.25.02.37.03.2.02.4.03.6.04.12,0,.24.02.36.02.22.01.44.02.66.03.1,0,.2,0,.3.01.32,0,.64.01.97.01.25,0,.5-.01.74-.02.06,0,.12,0,.17,0,4.99-.12,9.74-1.23,14.05-3.13.22-.13.43-.25.64-.39,1.82-1.16,3.26-2.6,4.33-4.33,1.07-1.73,1.61-3.75,1.61-6.07,0-2.2-.39-4.05-1.16-5.54Z"/>
      </g>
    </g>
  </g>
</svg>