<?xml version="1.0" encoding="UTF-8"?>
<svg id="Layer_1" data-name="Layer 1" xmlns="http://www.w3.org/2000/svg" viewBox="0 0 1170.73 392.4">
  <defs>
    <style>
      .cls-1 {
        fill: #9d032a;
      }

      .cls-1, .cls-2, .cls-3, .cls-4, .cls-5, .cls-6, .cls-7, .cls-8, .cls-9, .cls-10, .cls-11, .cls-12, .cls-13, .cls-14 {
        stroke-width: 0px;
      }

      .cls-2 {
        fill: #a31539;
      }

      .cls-3 {
        fill: #8bc43f;
      }

      .cls-4 {
        fill: #9d042b;
      }

      .cls-5 {
        fill: #9f0b31;
      }

      .cls-6 {
        fill: #9d042a;
      }

      .cls-7 {
        fill: #9f092f;
      }

      .cls-8 {
        fill: none;
      }

      .cls-9 {
        fill: #9c032a;
      }

      .cls-10 {
        fill: #fff;
      }

      .cls-11 {
        fill: #9d062c;
      }

      .cls-12 {
        fill: #a00c31;
      }

      .cls-13 {
        fill: #9e082e;
      }

      .cls-14 {
        fill: #9d052b;
      }
    </style>
  </defs>
  <g>
    <path class="cls-8" d="M302.31,326.9c-.24-.17-.5-.38-.84-.67.31.37.59.57.84.67Z"/>
    <path class="cls-10" d="M52.42,310.26c2.56-15.71,8.3-30.34,14.88-44.69,1.34-2.92,1.47-5.49.62-8.57-3.69-13.42-7.05-26.93-10.72-40.36-.77-2.83-.33-3.87,2.72-4.13,5.29-.45,10.55-1.3,15.83-1.97,18.95-2.41,37.91-4.81,56.87-7.22,2.23-.28,3.93-.94,4.96-3.36,13.99-32.97,28.05-65.9,42.2-98.8,1.24-2.89.41-3.41-2.31-3.34-9.32.25-18.62.82-27.79,2.42-41.63,7.26-76.63,26.59-104.47,58.35C15.57,192.4.42,232.02,0,276.86c-.25,26.9,6.07,52.61,17.85,76.89,4.32,8.9,4.29,8.93,14.04,8.44,10.06-.5,20.11-1.09,30.83.12-.63-1.26-.86-1.85-1.19-2.37-9.79-15.33-12.01-32-9.12-49.69Z"/>
    <path class="cls-9" d="M153.21,200.63c11.52-1.61,23.07-3.09,34.63-4.42,2.91-.34,4.18-1.69,5.17-4.32,7.42-19.86,14.98-39.68,22.56-59.48.55-1.45.55-3.29,2.51-4.39,14.48,73.35,28.92,146.51,43.44,220.04,12.18-6.6,23.09-13.86,33.77-21.49,1.96-1.4,1.73-2.79,1.32-4.68-2.25-10.54-4.39-21.1-6.6-31.64-16.19-77.08-32.38-154.15-48.57-231.22-4.14-19.71-8.28-39.41-12.4-59.03-1.27,0-1.36.7-1.6,1.31-4.49,11.41-9,22.8-13.49,34.21-21.16,53.81-42.28,107.64-63.55,161.41-1.43,3.62-.8,4.21,2.83,3.7Z"/>
    <path class="cls-9" d="M90.13,349.87c-1.4,3.51-.66,5.24,1.96,7.46,7.99,6.76,17.16,11.23,26.91,14.78,3.7,1.35,5.28.73,6.76-3.2,15.03-40.01,30.32-79.93,45.44-119.91,1.09-2.88,2.25-4.44,5.71-4.91,16.8-2.29,33.52-5.11,50.31-7.44,3.3-.46,3.77-1.62,3.18-4.44-2.01-9.58-4.08-19.15-5.72-28.79-.54-3.18-1.62-3.53-4.52-3.15-27.35,3.58-54.73,6.97-82.1,10.47-22.75,2.91-45.49,5.94-68.25,8.77-2.97.37-3.61,1.34-2.82,4.13,3.07,10.84,6.01,21.72,8.95,32.6.56,2.07,1.36,2.88,3.8,2.41,6.04-1.14,12.15-1.83,18.24-2.73,10.15-1.5,20.29-3.01,30.87-4.59-.52,1.47-.81,2.39-1.16,3.29-12.47,31.76-24.88,63.55-37.54,95.24Z"/>
    <path class="cls-10" d="M309.35,330.01c13.05-11.28,26.05-22.6,38.02-35.06,4.66-4.85,9.8-10,13.78-14.83,1.09-1.76,2.16-3.46-.29-4.61-2.56-1.2-3.9,1.07-5.26,2.66-15.03,17.55-31.41,33.71-49.43,48.19-1.4,1.12-2.6,2.61-4.54,2.91,0,0,0,0,0,0-.67.71-1.25,1.54-2.02,2.12-39.5,29.7-82.69,50.59-132.8,54.28-20.14,1.48-39.93-.79-58.37-9.68-21.03-10.14-34.29-26.05-34.7-50.34-.24-13.97,3.63-27.23,8.86-40.07,2.73-6.71,5.82-13.27,9-20.48-4.92.73-9.31,1.54-13.75,1.99-2.28.23-3.42,1.18-4.39,3.23-5.87,12.51-10.7,25.34-13.46,38.92-6.37,31.4,6.05,57.01,34.75,71.4,17.17,8.61,35.55,11.68,54.56,11.76,38.15.16,73.32-10.98,106.92-28.1,18.88-9.62,36.2-21.64,53.12-34.29h0Z"/>
    <path class="cls-10" d="M304.43,325.43c17.82-14.51,34.54-30.15,49.41-47.7.64-.76,1.23-1.61,2-2.21,1.83-1.43,3.83-3.23,6.13-1.03,1.6,1.53,1.46,3.06.54,4.48-.06.24-.13.48-.21.73-.16.45-.38.88-.65,1.28-.62.71-1.26,1.41-1.88,2.11-3.78,5.9-9.11,10.53-13.73,15.73-10.66,11.99-22.88,22.33-35.41,32.31h0c22.45,1.6,38.78-7.62,49.21-27.53,7.82-14.93,11.79-31.61,22.33-46.65-8.11.92-14.99,1.48-21.81,2.51-17.45,2.64-32.61,9.09-41.42,25.68-3.22,6.05-5.16,12.53-6.61,19.19-1.79,8.2-4.76,15.84-10.87,21.91.34.29.6.51.84.67.97.37,1.5-.97,2.12-1.48Z"/>
    <path class="cls-3" d="M359.77,283.09c.63-.71,1.26-1.4,1.88-2.11.26-.4.48-.83.65-1.28.07-.24.14-.49.21-.73-.31.47-.5.81-.94,1.55-.73,1.04-1.23,1.69-1.8,2.57Z"/>
    <path class="cls-1" d="M424.52,220.65c-.24.22-.56.4-.71.68-.32.57-.66,1.17-.82,1.8-3.42,13.53-13.47,19.15-26.06,21.21-12.29,2.01-24.73,3.15-37.03,5.14-20.97,3.4-37.97,12.79-47.49,32.83-3.88,8.15-6.22,16.76-7.68,25.62-.22,1.32-.03,2.71-.03,4.07,3.42-3.53,3.67-7.85,4.68-11.91,4.36-17.61,13.06-31.82,30.63-39.14,16.55-6.89,34.27-6.49,53.11-8.96-10,7.67-14.42,17.28-18.58,27.04-3.63,8.54-6.84,17.24-10.97,25.57-10.25,20.7-26.79,31.08-49.95,30.48-4.34-.11-7.68,1.03-10.88,5.01,21.02,2.36,40.2.05,55.86-14.89,9.33-8.9,14.72-20.34,19.73-31.97,4.26-9.88,7.71-20.15,13.69-29.22,5.24-7.95,12.11-13.14,22.2-12.82,1.7.05,3.48-.13,5.16-1.42-2.65-2.46-6.07-1.08-8.72-2.51,11.81-9.69,17.23-20.13,13.87-26.64Z"/>
    <path class="cls-10" d="M270.15,144.07c40.06,22.51,65.69,56.01,76.85,100.55.36,1.45-.48,4.76,3.21,3.25,2.37-.97,5.38-.49,4.46-5.22-4.18-21.39-11.79-41.39-23.24-59.91-16.95-27.42-39.74-48.64-69.24-64.51,1.7,8.2,3.17,15.3,4.64,22.4.38,1.84,1.84,2.6,3.32,3.43Z"/>
  </g>
  <g>
    <path class="cls-9" d="M484.83,73.33c24.37-3.79,48.82-6.4,73.52-5.33,5.25.23,10.64.44,15.09,4.13,1.99,1.65,4.05.86,5.74-.93,4.2-4.45,2.08-10.09-4.95-12.29-6.05-1.89-12.38-2.41-18.69-2.94-28.34-2.4-56.46-.21-84.49,4.06-19.84,3.02-38.41,9.2-54.5,21.59-5.29,4.08-10.17,8.58-13.44,14.54-4.13,7.52-3.27,14.63,2.13,21.24,4.69,5.74,11.34,7.16,17.95,8.83,1.32.34,2.8.85,3.27-.98.37-1.41-.97-1.85-1.99-2.44-6.42-3.65-7.98-8.04-5.34-14.87,1.64-4.25,4.3-7.82,7.36-11.14,10.37-11.22,23.81-16.28,39.2-19.63-7.93,22.73-16.07,44.25-26.61,64.79-4.32,8.42-8.98,16.67-15.35,23.77-2.9,3.22-6.03,6.7-10.62,6.83-4.64.13-4.33,2.08-3.11,5.25.91,2.36,2.13,4.49,3.75,6.4,7.5,8.85,18.77,8.2,25.01-1.52,1.7-2.65,3.19-5.44,4.57-8.27,15.07-30.77,26.38-62.95,35.63-95.86.99-3.52,2.49-4.72,5.86-5.24Z"/>
    <path class="cls-9" d="M1037.34,111.58c15.33-1.94,30.56-4.48,44.93-10.57,4-1.69,7.86-3.6,10.87-6.83,2.45-2.63,3.15-5.6.59-8.44-2.49-2.76-5.33-2.61-8.43-.47-13.82,9.55-29.95,10.68-46.4,12.99,1.61-4.48,3.11-8.16,4.26-11.94,1.25-4.12.6-8.02-2.92-10.83-3.77-3-8.25-3.31-12.8-2.28-1.72.39-2.06,1.82-1.98,3.52.32,6.59-1.88,12.72-3.4,19-.74,3.06-2.2,3.98-5.16,4-17.65.09-35.24-.7-52.61-4.07-11.28-2.19-22.41-5.04-31.84-12.09-9.43-7.06-9.9-13.39-1.81-21.62.81-.82,2.02-1.47,1.25-2.85-.99-1.79-2.35-.62-3.45-.15-5.73,2.45-10.83,5.82-14.68,10.8-6.84,8.86-5.81,19.25,2.6,26.66,4.29,3.78,9.25,6.44,14.58,8.42,16.88,6.26,34.5,8.32,52.32,8.92,10.75.36,21.51.07,32.82.07-2.69,7.79-5.14,15.15-7.76,22.45-5.6,15.58-11.34,31.1-16.9,46.69-1.41,3.96-1.85,8.21-.45,12.24,1.35,3.9,4.6,5.53,8.67,5.36,2.63-.11,4.61-.85,5.39-4.01,6.84-27.55,17.09-53.98,26.72-80.61,1.03-2.85,2.46-3.94,5.59-4.34Z"/>
    <path class="cls-9" d="M814.57,105.12c.95-1.59,1.26-3.33-1.01-4-5.62-1.66-18.87-.21-23.23,6.42-11.15,16.94-23.99,32.62-37.18,48.01-1.93,2.25-3.09,2.71-5.84,1.04-12.28-7.44-26.85-3.06-33.48,9.76-1.42,2.74-2,5.62-1.52,8.66.18,1.12.54,2.48,2.02,2.39,1.13-.06,1.52-1.17,1.63-2.2.45-4.08,3.14-6.07,6.76-7.03,5.57-1.47,10.84-.8,16.37,3.08-3.8,3.65-7.12,7.15-10.77,10.27-7.91,6.75-15.27,14.48-26.41,15.94-2.8.37-2.28,2.49-1.91,4.22,1.3,6.11,4.64,10.74,10.77,12.57,5.64,1.68,9.87-.98,13.48-5.27,7.05-8.39,14.29-16.63,21.41-24.96,1.25-1.47,2.26-3.25,3.82-.27,5.07,9.71,10.09,19.32,8.82,30.94-.91,8.28,5.78,14.75,13.69,13.92,2.35-.25,4.84-1.1,3.78-3.88-2.14-5.59-.53-10.89.82-16.07,9.27-35.75,18.72-71.46,37.98-103.57ZM765.49,185.33c-2.1-5.77-3.48-10.55-5.93-14.88-.57-1-.68-1.78.07-2.67,7.59-9.05,15.18-18.11,23.16-26.93-5.86,14.52-12.07,28.83-17.31,44.48Z"/>
    <path class="cls-9" d="M647.71,123.57c1.83-7.82-1.59-10.96-9.51-9.2-7.02,1.56-11.79,6.33-17.03,11.85.22-6.11-1.37-10.51-6.9-12.41-9.72-3.33-15.1,3.23-20.68,9.37-2.56-7.83-8.25-11.29-15.56-9.71-2.27.49-3.49,1.34-3.1,4.04.9,6.29-.95,12.17-3.38,17.86-2.73,6.39-5.79,12.66-8.41,19.1-1.7,4.18-2.57,8.61-1.05,13.13,1.3,3.87,3.88,6.21,8.12,5.98,3.95-.21,6.2-1.71,7.25-6.31,3.33-14.69,9.57-28.21,18.86-40.19,1.59-2.06,3.31-4.38,6.76-4.53-.15,1.12-.2,1.77-.33,2.4-2.01,9.86-7.12,18.51-10.91,27.67-1.96,4.74-2.88,9.57-1.62,14.57,1.08,4.27,4.25,6.4,8.51,6.18,3.39-.18,6.49-1.34,7.3-5.46,2.83-14.3,9.79-26.66,18.4-38.19,2.16-2.89,4.53-5.71,9.48-7.55-2.14,5.2-3.72,9.16-5.39,13.08-3.71,8.67-8,17.12-9.84,26.5-.56,2.83-.73,5.61.46,8.3,1.43,3.24,4.15,4.14,7.4,3.59,3.21-.55,7.53-1.95,7.13-5.06-1.16-8.95,3.63-15.89,6.34-23.53,2.55-7.17,5.97-14.03,7.71-21.49Z"/>
    <path class="cls-9" d="M862.92,115.74c.93-3.89.74-7.69-2.73-10.44-4-3.17-8.62-3.14-13.29-2.08-1.97.45-2.1,2.08-2.09,3.92.08,10.2-6.55,34.95-11.61,43.86-3.4-9.33-9.05-11.44-17.7-6.62-13.79,7.68-24.26,30.02-21.25,45.35,2.03,10.33,10.91,13.51,18.89,6.62,2.71-2.34,4.99-5.19,7.8-8.16.39,2.64.43,4.96,1.11,7.07,1.3,4.02,4.05,6.39,8.56,6.05,4.41-.33,6.43-2.64,6.19-7.13-.09-1.78.4-3.62.77-5.39,3.67-17.41,10.38-33.82,16.73-50.35,2.9-7.56,6.72-14.78,8.61-22.7ZM822.78,177.75c-3.07,4.91-6.55,9.53-10.97,13.37-2.15,1.87-3.34,1.64-3.95-1.26-.52-2.48-.42-4.92,0-7.38,1.73-10.32,5.69-19.61,12.97-27.29,1.72-1.81,3.76-3.42,6.54-2.76,1.7.41,2.44,2.63,2.44,7.91-.62,5.51-3.41,11.64-7.01,17.4Z"/>
    <path class="cls-9" d="M1076.16,143.67c-3.49-3.39-7.8-4.07-12.48-3.27-2.59.44-3.73,1.61-3.28,4.42.68,4.32.66,8.81-1.54,12.62-3.97,6.89-8.31,13.59-12.77,20.18-1.94,2.86-4.56,5.26-6.91,7.84-.54.59-1.17,1.37-2.1.96-1.23-.54-.81-1.68-.58-2.58.36-1.44.76-2.91,1.4-4.24,3.35-7.03,6.78-14.03,10.18-21.04,1.62-3.33,2.8-6.75,1.9-10.53-1.23-5.17-6.39-8.08-12.88-7.86-6.22.21-4.99,4.24-4.64,8.01.06.64-.26,1.3-.33,1.96-.87,7.91-4.5,14.85-7.74,21.92-2.48,5.42-5.36,10.72-5.67,16.86-.21,4.11.04,8.21,4.14,10.47,4.5,2.49,8.76,1,12.56-1.8,1.71-1.26,3.2-2.91,4.52-4.6,3.14-4.02,6.12-8.17,9.22-12.34.87,1.21.22,2.08.02,2.98-.98,4.42-1.79,8.88.57,13.1,1.95,3.47,5.05,4.41,8.93,3.83,3.75-.56,4.7-2.8,5.01-6.19.54-5.97,2.28-11.71,4.59-17.24,3.06-7.33,6.45-14.53,9.42-21.89,1.61-3.99,1.95-8.19-1.53-11.57Z"/>
    <path class="cls-9" d="M990.31,167.01c2.4-5.81,5.03-11.56,6.21-17.78.97-5.1-1.19-7.52-6.28-7.68-4.93-.15-9.1,1.73-12.81,4.67-2.84,2.25-5.42,4.82-8.18,7.32.11-9.76-5.74-14.89-14.69-13.1-2.42.48-3.86,1.37-3.53,4.27.78,6.79-1.03,13.12-3.87,19.23-2.37,5.1-4.77,10.19-6.91,15.39-1.71,4.15-2.88,8.49-2.41,13.07.47,4.59,3.8,8.07,7.92,8.14,4.57.08,7.05-1.82,8.23-6.68,3.53-14.56,10.77-27.35,20.38-38.8,1.8-2.14,3.76-4.22,7.62-5.2-1.51,3.71-2.63,6.61-3.85,9.47-3.64,8.52-7.96,16.75-10.65,25.67-1.12,3.72-1.75,7.44-.83,11.25,1.04,4.29,4.2,5.35,8.04,4.48,3.17-.72,7.26-1.55,6.66-5.76-.46-3.2.05-5.91,1.1-8.64,2.5-6.48,5.21-12.88,7.86-19.3Z"/>
    <path class="cls-9" d="M698.53,116.04c-3.68-3.06-8.09-3.74-12.68-2.6-2.1.52-2.68,2.04-2.31,4.24.37,2.25,1.13,4.73-.87,6.99-2.99-10.13-8.62-12.46-17.77-7.6-.88.47-1.76.96-2.52,1.58-14.06,11.45-20.61,26.22-18.49,44.24,1.13,9.64,9.76,12.69,17.7,6.98,3.12-2.25,5.16-5.5,8.45-8.62.2,3.62.34,6.46,2.11,8.86,2.11,2.88,5.08,3.61,8.39,3.1,2.18-.34,4.19-1.03,4.54-3.8,1.62-12.91,7.28-24.34,13.28-35.64,1.24-2.34,2.33-4.72,2.99-7.34,1.03-4.08.47-7.7-2.79-10.41ZM672.63,149.8c-2.63,4.79-6.19,8.98-10.14,12.79-1.16,1.12-2.45,3.05-4.04,2.38-1.79-.76-1.52-3.09-1.55-4.9-.01-.5,0-.99,0-1.49,1.33-11.6,5.18-22.13,13.45-30.68,1.71-1.77,3.81-3.8,6.44-2.67,2.46,1.05,2.11,3.87,2.24,6.15.39,7-3.25,12.67-6.4,18.42Z"/>
    <path class="cls-9" d="M494.62,112.32c-4.83-.13-9.22,1.46-12.98,4.39-12.47,9.7-18.72,22.73-19.08,38.3-.19,8.11,3.27,15.05,11.22,18.42,8,3.39,14.77.19,20.26-5.55,10.01-10.46,14.95-23.28,16.3-35.28.2-14.11-4.91-20-15.72-20.29ZM494.13,125.35c-1.62,12.14-5.12,23.64-12.71,33.56-.5.66-1.05,1.31-1.68,1.84-1.51,1.27-3.11,3.18-5.12,2.48-2.41-.83-1.95-3.53-2.29-5.74,1.41-11.99,4.79-23.28,13.45-32.38,1.02-1.07,2.23-2.02,3.52-2.73,3.48-1.91,5.34-.89,4.83,2.96Z"/>
    <path class="cls-9" d="M549.96,89.84c1.29-3.81,1.45-7.93-2.08-11.06-3.67-3.25-8.02-3.7-12.62-2.92-2.2.37-2.91,1.72-2.75,3.94.34,4.69-.7,9.22-1.87,13.73-4.88,18.82-12.54,36.66-19.29,54.82-1.73,4.65-3.39,9.37-3.3,15.43.03.52-.13,2.08.28,3.48,1.23,4.21,4.34,6.22,8.6,6.12,2.7-.07,4.97-.73,5.68-4.27,4-19.91,11.92-38.56,19.04-57.46,2.74-7.28,5.83-14.44,8.31-21.81Z"/>
    <path class="cls-9" d="M929.35,175.32c8.07-6.43,11.99-14.93,10.55-25.36-.89-6.48-5.03-9.97-11.55-10.03-7.3-.08-13.74,2.59-19.1,7.32-11.27,9.95-15.46,22.78-14.51,37.52.57,8.87,5.02,15.25,11.67,16.66,7.74,1.64,20.25-3.77,23.49-10.15.45-.89,1.09-1.72.19-2.69-1.21-1.31-2.08-.21-2.95.46-2.5,1.93-5,3.8-8.12,4.72-5.79,1.71-9.5-.57-10.19-6.51-.62-5.33.25-10.44,2.51-15.38,7.36,6.43,12.72,7.68,18.03,3.45ZM915.78,162.46c2.66-3.58,5.46-7.04,9.15-9.64,1.19-.84,2.47-1.92,4.04-1.21,1.66.75,1.09,2.57,1.51,3.54-.56,6.39-3.36,11-8.65,13.96-2.24,1.26-4.42.97-6.31-.94-1.99-2.02-1.1-3.87.26-5.71Z"/>
    <path class="cls-9" d="M1160.82,174.61c7.36-6.39,10.78-14.59,9.72-24.38-.68-6.23-5.03-10.09-11.39-10.32-4.94-.18-9.5,1.23-13.81,3.54-15.03,8.1-24.01,29.7-19.28,46.37,2.1,7.4,6.47,11.38,12.97,11.83,7.8.54,19.07-4.99,21.44-10.48.42-.97.71-1.95-.11-2.77-1-1-1.85-.06-2.56.5-2.47,1.98-5,3.82-8.08,4.79-5.88,1.85-9.39-.23-10.33-6.25-.84-5.42.34-10.53,2.5-15.88,6.91,7.01,13.14,8.07,18.93,3.04ZM1146.42,162.3c2.45-3.37,5.11-6.57,8.46-9.08,1.3-.97,2.72-2.3,4.49-1.58,2.02.82,1.13,2.85,1.41,4.62-.42,5.55-3.32,9.75-8.16,12.68-2.44,1.47-4.77,1.19-6.77-.92-2-2.11-.74-3.94.57-5.73Z"/>
    <path class="cls-9" d="M898.1,137.38c-2.31-.3-1.99,2.04-2.3,3.6-3.75,19.02-13.41,34.75-27.15,48.15-1.01.99-2.18,2.77-3.61,2.08-1.98-.96-.62-2.93-.34-4.46,1.7-9.33,5.2-18.1,8.59-26.9,1.21-3.14,2.01-6.31,1.56-9.7-.75-5.71-6.05-8.95-13.15-8.47-6.47.44-5.71,4.45-4.8,8.74.14.64.11,1.32.15,1.77-.12,8.31-2.96,15.77-5.55,23.28-1.62,4.7-3.41,9.37-3.59,14.4-.16,4.56-.01,9.37,4.52,11.88,4.65,2.58,9.32,1.15,13.53-1.71,1.23-.84,2.43-1.74,3.57-2.71,8.58-7.28,15.43-15.98,20.88-25.76,5.2-9.34,9.17-19.12,9.23-30.06,0-1.56.61-3.87-1.54-4.15Z"/>
    <path class="cls-9" d="M1129.93,155.03c2.06-3.44,4.08-7.39,1.21-11.11-2.96-3.83-7.21-2.28-11.06-1.25-2.77.74-5.2,2.22-7.37,4.04-2.52,2.12-4.91,4.41-7.82,7.04-.26-9.81-5.15-14.12-14.12-13.14-3.02.33-4.45,1.45-4.11,4.75.68,6.62-1.17,12.78-3.89,18.75-2.6,5.72-5.12,11.49-7.56,17.28-1.5,3.57-2.03,7.35-1.7,11.22.38,4.53,3.34,7.77,7.31,8.08,5.29.42,7.36-1.18,8.72-6.61,3.66-14.6,10.94-27.31,20.43-38.84,1.72-2.1,3.72-4.01,6.46-4.99.7,1.88-.32,3.19-.54,4.62-.43,2.71.68,4.69,3.44,5.11,4.56.7,8.25-1.07,10.6-4.97Z"/>
    <path class="cls-9" d="M551.74,112.98c-4.47.03-5.82.88-5.54,4.31.56,6.87-1.43,13.13-4.08,19.26-2.37,5.47-5.03,10.82-7.35,16.32-1.98,4.67-2.85,9.6-1.44,14.59,1.2,4.27,4.51,5.96,8.74,5.96,4.26,0,5.41-2.81,5.9-6.47,1.05-7.79,3.98-15.03,7.28-22.1,2.52-5.4,5.56-10.59,7.72-16.12,3.62-9.27-1.21-15.8-11.23-15.74Z"/>
    <path class="cls-4" d="M559.54,82.8c-3.18,5.21-5.41,10.92-6.26,16.88.38,2.99.81,5.74,2.8,7.98,1.56,1.76,3.5,2.54,5.76,2.1,2.21-.43,1.75-2.55,2.06-4.05.51-2.49,1.73-4.61,3-6.73,1.36-2.26,3.01-4.4,4.01-6.81,1.69-4.08.45-7.51-3.43-9.68-2.64-1.48-5.9-3.04-7.94.31Z"/>
  </g>
  <g>
    <path class="cls-4" d="M556.63,267.63c1.2-.02,2.35-.04,3.02-1.26.55-1,.41-2.01-.34-2.75-2.5-2.47-5.49-4.58-8.78-1.95-6.42,5.14-13.27,10.16-13.66,19.71-2.8-2.24-4.54-1.44-6.5.95-3.2,3.91-7.54,6.46-12.22,8.3-3.6,1.42-6.71-.52-7.72-4.59-1.1-4.41,2.49-3.21,4.57-3.75,4.94-1.29,9.33-3.43,12.53-7.59,3.23-4.19,2.61-5.83-2.67-6.9-7.21-1.45-17.13,3.37-20.2,9.97-2.57,5.51-1.47,10.71,1.95,15.5,2.58,3.62,6.32,5.05,10.53,3.93,8.24-2.19,14.71-7.25,20.83-13.37,1.51,2.79,4.44,3.97,7.33,5.3,2.28,1.05,6.31.5,6.49,3.28.13,2.13-3.7,2.78-5.91,3.77-2.1.94-3.59,2.18-2.63,4.49.99,2.4,3.36,2.2,5.14,1.25,3.06-1.63,6.04-3.51,8.77-5.66,3.92-3.09,3.53-6.6-.97-8.93-2.93-1.52-6.1-2.58-9.2-3.78-2.25-.87-3.65-2.2-3.2-4.83.78-4.65,8.15-11.05,12.86-11.11Z"/>
    <path class="cls-6" d="M498.65,256.25c-12.06-8.89-25.41-9.44-39.26-4.98-1.84.59-3.43,1.78-2.82,4,.58,2.1,2.21,3.67,4.45,2.93,3.03-1.01,2.48.86,2.38,2.44-.64,10.57-1.51,21.15,0,30.98-.26,2.07-.49,3.37-.58,4.69-.11,1.61.42,2.79,2.12,3.47,1.54.62,3.15.89,4.13-.39,3.97-5.18,10.16-7.19,15.18-10.87,6.17-4.52,12.5-8.84,16.88-15.25,4.37-6.4,3.66-12.49-2.48-17.03ZM494.55,271.35c-6.06,7.47-14.17,12.36-22.29,17.24-1.94,1.16-2.79.53-2.84-1.5-.07-2.97-.02-5.95-.02-8.93-.14,0-.28-.01-.41-.02.54-6.43,1.19-12.85,1.58-19.29.18-2.98,1.58-3.95,4.38-3.93,6.07.05,11.88,1.11,17.16,4.24,5.67,3.36,6.52,7.16,2.44,12.2Z"/>
    <path class="cls-6" d="M838.83,278.75c-.44-1.82-2.13-2.46-3.93-2.37-3.53.18-6.78,1.49-10.07,2.62-9.07,3.09-17.81,7.03-26.7,10.88-.95-9.93-.97-9.96,7.7-13.68,3.35-1.44,6.78-2.69,10.18-4,2.23-.86,4.88-1.77,3.7-4.77-.99-2.52-3.44-2-5.6-1.2-4.94,1.82-9.89,3.62-15.26,5.59.5-3.47-1.61-7.78,1.17-9.19,7.03-3.57,14.07-7.66,22.18-8.43,2.47-.23,4.64-.29,5.8-2.8.45-.97.45-2.02-.32-2.79-1.98-1.96-4.31-1.19-6.56-.65-7.28,1.76-14.25,4.48-21.06,7.47-2.77,1.22-6.44-.62-8.32,2.33-1.75,2.75.64,5.7.41,8.69-.63,8.1-.94,16.22-1.2,24.34-.22,7.07,2.84,8.99,9.05,5.95,11.63-5.68,23.25-11.36,35.68-15.17,1.51-.46,3.75-.35,3.14-2.83Z"/>
    <path class="cls-4" d="M720.8,249.39c-1.12-.87-2.47-1.42-3.69-.66-1.8,1.12-1.5,3.05-1.43,4.91.26,6.99-1.25,13.83-1.87,21.49-3.65-3.15-7.18-5.02-11.06-3.4-7.43,3.1-12.73,8.44-14.32,16.58-1.17,6,3.25,10.46,9.32,9.72,3.65-.45,7.13-1.57,10.33-3.42,1.88-1.08,3.3-1.99,5.31.43,1.65,1.98,4.16,1.49,4.61-1.58.71-4.87,6.29-9.16,1.84-14.69-.24-.29-.01-.97.03-1.46.6-7.6,1.2-15.2,2.73-22.68.45-2.22-.04-3.89-1.78-5.25ZM709.4,286.45c-3.3,1.84-6.58,3.72-9.93,5.46-1.42.74-2.93.59-4.08-.67-1.02-1.12-.78-2.48-.32-3.74,1.21-3.35,3.38-6.04,6.24-8.08,1.69-1.21,3.51-2.69,5.83-1.23,2.32,1.46,2.74,3.97,3.47,6.31.07.94-.46,1.53-1.21,1.95Z"/>
    <path class="cls-6" d="M865.59,266.72c-4.81-.91-7.53,2.24-6.49,6.93.24,1.08.02,2.28-.08,3.41-.97,10.39-2.59,20.74-2.29,31.22,0,4.3,0,8.61,0,12.92,0,2.23.65,4.05,3.23,4.12,2.77.07,3.07-1.88,3.06-4.08-.03-5.47,0-10.94.03-16.42.03-3.99.39-7.56,4.84-9.66,2.42-1.14,4.29-3.62,6.17-5.71,3.25-3.62,6.48-7.41,4.32-12.82-2.3-5.75-6.93-8.8-12.78-9.91ZM871,283.63c-1.59,2.13-3.41,3.93-6.32,5.67-.19-5.02.91-9.18,1.54-13.4.31-2.13,1.33-2.38,2.96-1.08,3.08,2.44,4.58,5.13,1.83,8.81Z"/>
    <path class="cls-6" d="M627.12,285.55c-.12-4.97.19-9.96-1.04-14.86-.49-1.97-1-3.99-3.26-4.59-2.3-.61-3.73,1.02-5.04,2.5-1.5,1.7-2.83,3.56-4.65,5.88-.11-1.4-.22-1.9-.17-2.38.29-2.67.17-5.33-3.23-5.59-3.82-.29-3.42,2.93-3.57,5.28-.44,7.11-.73,14.24-1.04,21.36-.1,2.22-.05,4.58,2.76,5.08,2.95.53,3.48-1.93,4.19-3.95,2-5.71,3.84-11.48,7.3-16.51.54.09,1.08.17,1.62.26,0,5.95,0,11.9,0,17.85,0,2.88,1.73,4.41,4.35,4.32,3.17-.11,3.16-2.65,2.43-4.78-1.12-3.28-.58-6.58-.66-9.87Z"/>
    <path class="cls-14" d="M1011.58,283.52c-.07-3.99,0-7.97-.81-11.9-.47-2.31-.82-4.87-3.53-5.48-2.64-.59-4.24,1.42-5.7,3.27-1.2,1.51-2.32,3.08-3.91,5.19-.1-1.33-.23-1.94-.17-2.52.29-2.68.18-5.35-3.23-5.59-3.78-.27-3.43,2.86-3.56,5.27-.37,6.96-.66,13.92-.97,20.88-.1,2.34-.41,5.05,2.71,5.55,3.17.5,3.56-2.33,4.31-4.48,1.95-5.56,3.81-11.15,7.2-16.04.53.09,1.05.18,1.58.27,0,5.96,0,11.91,0,17.87,0,2.88,1.66,4.48,4.29,4.38,3.1-.12,3.11-2.55,2.44-4.79-1.17-3.93-.59-7.92-.66-11.88Z"/>
    <path class="cls-4" d="M750.85,282.26c-3.53,4.1-8.07,6.94-13.12,8.69-4.05,1.4-5.65-1.74-6.78-4.81-1.42-3.86,1.76-3.37,3.88-3.82,5.91-1.24,10.91-3.87,14.17-9.19,1.21-1.97,1.55-3.52-1.18-4.67-9.9-4.21-24.02,4.78-24,15.37.02,10.99,8.19,16.37,18.15,11.94,4.9-2.18,9.02-5.57,13.31-8.69,2.13-1.54,3.18-3.85,1.26-5.98-2.13-2.36-3.96-.85-5.7,1.16Z"/>
    <path class="cls-4" d="M906.72,282.26c-3.52,4.11-8.05,6.97-13.12,8.68-4.04,1.36-5.66-1.74-6.77-4.82-1.39-3.84,1.76-3.37,3.89-3.81,5.93-1.21,10.94-3.84,14.17-9.19,1.01-1.68,1.67-3.2-.75-4.49-9.04-4.81-24.41,4.39-24.46,14.69-.05,11.56,8.19,16.92,18.64,12.19,4.75-2.15,8.68-5.49,12.89-8.44,2.2-1.54,3.06-3.96,1.21-6.01-2.09-2.33-3.97-.83-5.7,1.19Z"/>
    <path class="cls-4" d="M987.28,280.81c-2.12-1.91-3.8-.65-5.36,1.3-3.29,4.13-7.84,6.59-12.58,8.63-4.32,1.86-6.16-1.21-7.38-4.44-1.54-4.09,1.85-3.48,4.15-4.02,5.66-1.32,10.57-3.88,13.78-8.99,1.2-1.91,1.72-3.54-.97-4.79-9.62-4.46-24.14,4.65-24.16,15.22-.02,10.87,8.33,16.44,18.14,12.06,5.05-2.26,9.36-5.68,13.68-9.03,2.06-1.6,2.97-3.89.69-5.95Z"/>
    <path class="cls-4" d="M589.51,265.15c-3.25-.19-6.52-.19-9.78-.26.3-3.42.9-6.85.81-10.26-.06-2.44.25-6.14-3.51-6-3.45.13-2.63,3.55-2.88,5.9-.09.82-.15,1.65-.15,2.48,0,6.46-1.62,11.65-9.31,12.41-.93.09-1.87.7-2.68,1.25-1.7,1.15-2.52,2.87-1.44,4.7,1.02,1.73,2.69,2.3,4.7,1.13,1.83-1.06,3.57-2.42,6.29-2.59-.35,4.85-.71,9.29-.99,13.73-.14,2.31-.38,4.65-.12,6.93.26,2.31,1.53,4.12,4.28,3.83,2.89-.31,2.48-2.49,2.44-4.52-.08-3.64-.27-7.31.02-10.93,1.13-14.38-.71-10.83,11.98-12.41,1.61-.2,3.64.19,3.86-2.11.22-2.34-1.54-3.18-3.51-3.29Z"/>
    <path class="cls-4" d="M1085.68,278.23h0c0-5.1-2.13-9.09-6.79-11.18-4.02-1.8-7.83-.4-11.14,2.19-1.3,1.02-2.59,2.45-1.31,4.25,1.33,1.87,2.97,1.45,4.76.36,4.37-2.66,6.55-1.88,8.09,2.87.49,1.51,1.22,3.11.45,4.79-6.95-2.46-11.54-.61-14.36,5.89-1.37,3.16-2.06,6.47.64,9.3,2.57,2.7,5.73,1.87,8.85,1.01,1.4-.39,2.61-1.95,4.14-1.18,4.24,2.12,4.85-1,5.57-3.77.62-2.39,1.5-4.77,1.1-7.32,0-2.41,0-4.81,0-7.22h0ZM1071.57,292.37c-1.19.1-1.77-.5-1.33-1.81.69-2.08,1.53-4.15,4.07-4.23,1.55-.05,1.79,1.61,2.41,3.09-1.3,1.58-2.95,2.76-5.14,2.94Z"/>
    <path class="cls-4" d="M1086.06,283.62c-.14.65-.26,1.24-.38,1.83.16-.61.29-1.22.38-1.83Z"/>
    <path class="cls-4" d="M639.02,269.26c-5.53,3.37-10.07,13.63-8.8,19.89,1.14,5.61,5.14,8.86,9.98,8.08,7.65-1.23,13.89-8.63,13.87-16.44,0-3.32-.86-6.36-2.38-8.45-3.18-4.38-8.43-5.65-12.67-3.07ZM641.37,290.51c-2.72,1.11-5.07-1.04-5-4.77.98-3.51,2.18-7.16,5.08-9.78,2.56-2.31,4.52-1.15,5.64,1.71,1.75,4.49-1.19,10.99-5.71,12.84Z"/>
    <path class="cls-14" d="M1046.68,281.15c-2.35,1.21-4.56,2.67-6.89,3.93-4.94,2.67-9.75,5.73-15.51,6.33-2.5.26-4.77-.19-4.96-3.4-.24-4.2,6.43-12.06,10.83-12.65,3.21-.42,5.12-2.25,4.46-5.27-.67-3.07-3.54-2.35-5.79-1.81-1.26.3-2.57.8-3.6,1.57-5.56,4.17-9.88,9.31-11.77,16.14-1.85,6.68,1.53,11.04,9.33,11.16,9.63-.9,18.31-5.97,26.72-11.67,1.31-.89,1.58-2.15.7-3.44-.85-1.25-2.23-1.56-3.53-.89Z"/>
    <path class="cls-14" d="M1106.05,267.53c1.59.13,3.01.37,3.72-1.44.71-1.8-.52-2.74-1.72-3.69-2.45-1.95-5.16-2.73-7.72-.57-5.3,4.46-11.14,8.6-12.81,15.97-.4,1.77-1,1.27-1.85.44.62,1.8.66,3.59.38,5.39.23-1.09.5-2.38.88-4.16,1.42,9.98,10.44,8.79,15.62,12.72-1.94,2.33-4.41,2.98-6.61,4.07-1.84.92-3.99,1.75-2.71,4.32,1.22,2.46,3.54,2.35,5.58,1.17,3.01-1.73,6.02-3.55,8.71-5.72,3.36-2.7,3.02-6.33-.78-8.41-2.88-1.58-6.07-2.62-9.15-3.82-1.95-.76-3.69-1.67-3.92-4.01-.41-4,8.2-12.59,12.39-12.26Z"/>
    <path class="cls-14" d="M1085.68,278.23h0c0,2.41,0,4.81,0,7.22.12-.59.25-1.17.38-1.83.28-1.8.24-3.59-.38-5.39Z"/>
    <path class="cls-14" d="M852.03,265.91c-1.8-.89-2.87.17-3.64,1.56-1.04,1.86-1.95,3.8-3.02,5.92-.51-.98-.9-1.71-1.26-2.45-.93-1.88-1.56-4.66-4.45-3.22-2.48,1.23-1.92,3.81-.77,5.7,3.69,6.11,2.59,11.85-.73,17.65-1.31,2.29-2.36,4.76-3.23,7.25-.87,2.46-.36,4.86,2.44,5.58,2.59.66,4.02-1.01,4.35-3.53.45-3.35,2.01-6.23,3.8-9.43.52,1.18.93,2.06,1.28,2.96.3.76.47,1.58.83,2.3.93,1.9,2.48,2.9,4.46,1.87,2.12-1.1,1.7-3.15.75-4.76-4.26-7.2-4.18-14.29.19-21.39.42-.69.68-1.52.84-2.33.33-1.66-.29-2.94-1.83-3.7Z"/>
    <path class="cls-4" d="M939.49,266.42c-3.34-.72-6.38.12-8.74,2.48-2.8,2.8-5.31,5.88-8.76,9.75-.73-4.32-1-7.07-1.72-9.7-.53-1.94-2.11-3.06-4.26-2.35-1.55.52-2.44,1.66-2.03,3.47,1.74,7.59.92,15.17.04,22.77-.29,2.53-.34,5.31,3.26,5.53,3.43.21,3.16-2.48,3.58-4.79,1.66-9.09,7.79-15.09,14.64-20.54,1.02-.81,2.12-.57,3.31-.29,2.12.5,3.69-.33,3.89-2.59.19-2.16-1.22-3.33-3.22-3.76Z"/>
    <path class="cls-4" d="M1123.37,240.74c-3.1-.15-3.58,2.17-3.76,4.72-.55,7.59-1.25,15.17-1.84,22.76-.43,5.44-.87,10.89-1.11,16.34-.11,2.54.95,4.79,3.87,4.78,3.29,0,3.42-2.6,3.15-5.02-.38-3.5.04-6.9.58-10.36,1.18-7.51,2.35-15.05,2.5-22.68,0-1.82-.02-3.65,0-5.47.04-2.49-.32-4.92-3.39-5.07Z"/>
    <path class="cls-4" d="M450.44,267.09c-.11-1.85-1.38-3.21-3.4-2.71-1.8.45-2.01,2.1-1.52,3.66,1.6,5.11.38,10.22.1,15.32-.43,7.8-.7,15.59-.33,23.4.09,1.9.36,3.87,2.87,3.82,2.49-.05,2.11-2.08,2.12-3.68.02-6.31.01-12.62,0-18.93.16-2.65.44-5.3.44-7.95.01-4.31-.04-8.63-.3-12.93Z"/>
    <path class="cls-13" d="M948.2,267.94c-2.34-.18-3.15,1.57-3.35,3.49-.44,4.27-.73,8.55-1.07,12.83.1,0,.2,0,.3.01,0,3.3-.17,6.61.07,9.89.13,1.78,1.45,3.01,3.41,2.9,1.98-.12,3.22-1.52,2.96-3.3-1.04-7.3.59-14.44.98-21.66.12-2.22-.87-3.97-3.3-4.16Z"/>
    <path class="cls-5" d="M597.63,267.94c-2.68-.19-3.25,1.97-3.45,3.97-.43,4.27-.65,8.57-.96,12.86.09,0,.18,0,.27,0,0,3.14-.17,6.29.07,9.41.14,1.8,1.52,2.99,3.45,2.87,1.93-.13,3.22-1.44,2.96-3.3-.99-7.14.47-14.14.97-21.2.17-2.39-.53-4.42-3.3-4.61Z"/>
    <path class="cls-11" d="M1057.27,267.98c-2.95-.32-3.49,1.88-3.7,4.16-.36,3.94-.66,7.88-.99,11.82.07,0,.15,0,.22.01,0,3.3-.15,6.6.06,9.89.13,2.03,1.51,3.35,3.68,3.15,1.96-.19,3.11-1.79,2.82-3.47-1.22-6.97.66-13.77.81-20.65.05-2.2.03-4.58-2.9-4.9Z"/>
    <path class="cls-7" d="M1058.53,247.33c-1.54-.71-2.98-.41-3.73,1.23-1.15,2.52-2.57,4.97-2.64,8.33.09,1.15-.09,2.98,2.03,3.5,1.44.36,2.68-.21,3.23-1.6,1.03-2.58,1.98-5.2,2.81-7.84.5-1.6-.2-2.93-1.7-3.62Z"/>
    <path class="cls-13" d="M949.47,247.24c-1.64-.61-2.96.09-3.65,1.67-1.06,2.42-2.32,4.79-2.53,7.7.3,1.36-.07,3.41,2.14,3.8,2.31.41,3.11-1.1,3.63-3.13.53-2.07,1.52-4.03,2.25-6.05.68-1.89-.03-3.31-1.83-3.98Z"/>
    <path class="cls-7" d="M599.22,247.35c-1.62-.76-3.04-.26-3.78,1.3-1.12,2.37-2.59,4.67-2.48,7.76.14,1.42-.55,3.66,2.11,4.03,2.44.34,2.9-1.53,3.46-3.37.62-2.06,1.54-4.02,2.28-6.05.61-1.68-.04-2.95-1.59-3.67Z"/>
    <path class="cls-12" d="M1119.36,297.87c-2.8-.2-3.43,2-3.45,3.88-.03,2.34.88,4.86,3.79,4.91,2.76.05,3.3-2.25,3.45-4.55,0-2.53-1.16-4.06-3.79-4.25Z"/>
    <path class="cls-2" d="M448.29,253.39c1.77.06,2.05-1.25,2.01-2.68.04-1.98-.63-3.78-2.73-3.96-1.72-.14-2.32,1.41-2.33,3.06-.01,2.1.84,3.5,3.05,3.58Z"/>
  </g>
</svg>